<?xml version="1.0" encoding="UTF-8" standalone="no"?>
<svg
   width="100%"
   height="100%"
   viewBox="0 0 318 147"
   version="1.1"
   xml:space="preserve"
   style="fill-rule:evenodd;clip-rule:evenodd;stroke-linejoin:round;stroke-miterlimit:2;"
   id="svg10"
   sodipodi:docname="CC Superblock Nbg 03 schwarz.svg"
   inkscape:version="1.4 (86a8ad7, 2024-10-11)"
   xmlns:inkscape="http://www.inkscape.org/namespaces/inkscape"
   xmlns:sodipodi="http://sodipodi.sourceforge.net/DTD/sodipodi-0.dtd"
   xmlns="http://www.w3.org/2000/svg"
   xmlns:svg="http://www.w3.org/2000/svg"><defs
   id="defs10" /><sodipodi:namedview
   id="namedview10"
   pagecolor="#ffffff"
   bordercolor="#000000"
   borderopacity="0.25"
   inkscape:showpageshadow="2"
   inkscape:pageopacity="0.0"
   inkscape:pagecheckerboard="0"
   inkscape:deskcolor="#d1d1d1"
   inkscape:zoom="1.767767"
   inkscape:cx="302.92454"
   inkscape:cy="0.84852814"
   inkscape:window-width="1920"
   inkscape:window-height="974"
   inkscape:window-x="-11"
   inkscape:window-y="-11"
   inkscape:window-maximized="1"
   inkscape:current-layer="svg10" />
    <path
   d="M9.8,69.1L9.8,58.2C9.8,57.5 10.3,57 11,57L72.4,57C76.3,57 77.8,55.3 77.8,51.8C77.8,48.3 76.2,46.6 72.4,46.6L28.4,46.6C15.7,46.6 8.6,40.4 8.6,28.3C8.6,16.2 15.7,10 28.3,10L89.8,10C90.5,10 91,10.5 91,11.2L91,22C91,22.7 90.5,23.2 89.8,23.2L28.4,23.2C24.5,23.2 23,24.9 23,28.4C23,31.9 24.6,33.6 28.4,33.6L72.4,33.6C85.1,33.6 92.2,39.8 92.2,51.9C92.2,64 85.1,70.2 72.4,70.2L11,70.2C10.2,70.3 9.8,69.8 9.8,69.1Z"
   style="fill-rule:nonzero;fill:#f16911;fill-opacity:1"
   id="path1" />
    <path
   d="M96.1,57.4L96.1,11.2C96.1,10.5 96.6,10 97.3,10L108.7,10C109.4,10 109.9,10.5 109.9,11.2L109.9,55.3C109.9,57.8 111.3,59.2 113.9,59.2L114,59.2C116.5,59.2 118,57.9 118,55.3L118,11.2C118,10.5 118.5,10 119.2,10L130.6,10C131.3,10 131.8,10.5 131.8,11.2L131.8,69.1C131.8,69.8 131.3,70.3 130.6,70.3L119.2,70.3C118.5,70.3 118,69.8 118,69.1L118,67.4C118,66.3 117.3,66.2 116.4,67C113.9,69.8 111,71 107.1,71C100.2,71 96.1,66 96.1,57.4Z"
   style="fill-rule:nonzero;fill:#f16911;fill-opacity:1"
   id="path2" />
    <path
   d="M137.4,69.1L137.4,11.2C137.4,10.5 137.9,10 138.6,10L150,10C150.7,10 151.2,10.5 151.2,11.2L151.2,12.9C151.2,14 151.9,14.2 152.6,13.4C155.1,10.5 158,9.3 162,9.3C169,9.3 173.1,14.2 173.1,22.9L173.1,46.2C173.1,54.9 169,59.8 162,59.8C158,59.8 155.1,58.6 152.6,55.7C151.9,54.9 151.2,55.1 151.2,56.2L151.2,69.1C151.2,69.8 150.7,70.3 150,70.3L138.6,70.3C137.9,70.3 137.4,69.8 137.4,69.1ZM159.4,43.6L159.4,25.4C159.4,22.5 158.1,21.1 155.4,21.1L155.3,21.1C152.7,21.1 151.3,22.6 151.3,25.4L151.3,43.6C151.3,46.5 152.6,47.9 155.3,47.9L155.4,47.9C158,48 159.4,46.5 159.4,43.6Z"
   style="fill-rule:nonzero;fill:#f16911;fill-opacity:1"
   id="path3" />
    <path
   d="M177.3,58.1L177.3,22.2C177.3,13.6 181.6,9.3 190.2,9.3L230.8,9.3C238.6,9.3 243.3,13.2 244.8,20.9L248.7,40.8C249.2,43.6 248.1,45 245.3,45L192.4,45C191.7,45 191.2,45.5 191.2,46.2L191.2,55.7C191.2,58.4 192.4,59.6 195.1,59.6L234.4,59.6C237.4,59.6 238.5,58.3 237.9,55.4L237.2,52.4C237.1,51.7 237.4,51.1 238.3,51.1L249.6,51.1C250.3,51.1 250.8,51.5 250.9,52.2L251.9,57C253.8,66.3 249.8,71.1 240.3,71.1L190.3,71.1C181.6,71 177.3,66.6 177.3,58.1ZM233.1,32.2L231.5,24.2C231,21.8 229.7,20.7 227.3,20.7L195,20.7C192.4,20.7 191.1,21.9 191.1,24.6L191.1,32.3C191.1,33 191.6,33.5 192.3,33.5L232,33.5C232.9,33.5 233.2,32.9 233.1,32.2Z"
   style="fill-rule:nonzero;fill:#f16911;fill-opacity:1"
   id="path4" />
    <path
   d="M259,69.2L247.9,11.3C247.8,10.6 248.1,10 249,10L260.4,10C261.1,10 261.6,10.4 261.7,11.1L262.5,15.3C262.7,16.5 263.3,16.5 264,15.5C266.5,11 270.5,9.2 275.5,9.2C283.3,9.2 287.3,13.8 287.3,26.6C287.3,30.2 286.9,36 286,42.7C285.9,43.4 285.4,43.8 284.7,43.8L273.6,43.8C272.9,43.8 272.4,43.3 272.5,42.5C273.2,38 273.5,34.1 273.5,30.8C273.5,23.2 271.9,21.5 268.8,21.5C265.4,21.5 264.1,23.3 264.9,27.8L272.9,68.9C273,69.6 272.7,70.2 271.8,70.2L260.3,70.2C259.6,70.3 259.1,69.9 259,69.2Z"
   style="fill-rule:nonzero;fill:#f16911;fill-opacity:1"
   id="path5" />
    <path
   d="M23.9,77L23.9,89.9C23.9,91 24.6,91.2 25.4,90.4C27.9,87.5 30.8,86.3 34.8,86.3C41.8,86.3 45.9,91.2 45.9,99.9L45.9,123.2C45.9,131.9 41.8,136.8 34.8,136.8C30.8,136.8 27.9,135.6 25.4,132.7C24.7,131.9 23.9,132.1 23.9,133.2L23.9,134.9C23.9,135.6 23.4,136.1 22.7,136.1L11.2,136.1C10.5,136.1 10,135.6 10,134.9L10,77C10,76.3 10.5,75.8 11.2,75.8L22.6,75.8C23.4,75.8 23.9,76.2 23.9,77ZM23.9,102.4L23.9,120.6C23.9,123.5 25.2,124.9 27.9,124.9L28,124.9C30.6,124.9 32,123.5 32,120.6L32,102.4C32,99.5 30.7,98.1 28,98.1L27.9,98.1C25.2,98.1 23.9,99.5 23.9,102.4Z"
   style="fill-rule:nonzero;fill:#f16911;fill-opacity:1"
   id="path6" />
    <path
   d="M50.5,134.9L50.5,77C50.5,76.3 51,75.8 51.7,75.8L63.2,75.8C63.9,75.8 64.4,76.3 64.4,77L64.4,123.4C64.4,124.1 64.9,124.6 65.6,124.6L73.3,124.6C74,124.6 74.5,125.1 74.5,125.8L74.5,134.8C74.5,135.5 74,136 73.3,136L51.7,136C51,136.1 50.5,135.6 50.5,134.9Z"
   style="fill-rule:nonzero;fill:#f16911;fill-opacity:1"
   id="path7" />
    <path
   d="M77.6,123.9L77.6,88C77.6,79.4 81.9,75.1 90.5,75.1L201.1,75.1C210.1,75.1 214.2,79.7 213.3,88.7L209.2,124.6C208.4,132.7 203.8,136.8 195.7,136.8L90.5,136.8C81.9,136.8 77.6,132.4 77.6,123.9ZM114.369,100.489L114.104,101.836L115.944,101.836L118.044,91.236L116.124,91.236L115.004,96.856C114.777,97.99 114.324,98.836 113.644,99.396C112.964,99.956 112.124,100.236 111.124,100.236C110.15,100.236 109.474,99.966 109.094,99.426C108.714,98.886 108.617,98.143 108.804,97.196L109.984,91.236L108.064,91.236L106.884,97.176C106.684,98.19 106.71,99.053 106.964,99.766C107.217,100.48 107.654,101.023 108.274,101.396C108.894,101.77 109.657,101.956 110.564,101.956C111.497,101.956 112.354,101.766 113.134,101.386C113.596,101.161 114.008,100.862 114.369,100.489ZM137.765,119.136L146.464,119.136C146.504,118.923 146.537,118.693 146.564,118.446C146.59,118.2 146.604,117.956 146.604,117.716C146.604,116.756 146.407,115.936 146.014,115.256C145.62,114.576 145.07,114.053 144.364,113.686C143.657,113.32 142.824,113.136 141.864,113.136C140.717,113.136 139.694,113.406 138.794,113.946C137.894,114.486 137.184,115.223 136.664,116.156C136.144,117.09 135.884,118.156 135.884,119.356C135.884,120.29 136.09,121.1 136.504,121.786C136.917,122.473 137.504,123.006 138.264,123.386C139.024,123.766 139.924,123.956 140.964,123.956C141.777,123.956 142.564,123.826 143.324,123.566C144.084,123.306 144.717,122.93 145.224,122.436L144.404,121.056C144.03,121.43 143.557,121.726 142.984,121.946C142.41,122.166 141.79,122.276 141.124,122.276C139.99,122.276 139.147,122.013 138.594,121.486C138.04,120.96 137.764,120.216 137.764,119.256C137.764,119.216 137.764,119.176 137.765,119.136ZM137.947,117.736C138.027,117.435 138.132,117.152 138.264,116.886C138.597,116.213 139.067,115.686 139.674,115.306C140.28,114.926 140.984,114.736 141.784,114.736C142.464,114.736 143.047,114.873 143.534,115.146C144.02,115.42 144.377,115.813 144.604,116.326C144.78,116.726 144.851,117.196 144.818,117.736L137.947,117.736ZM131.339,92.577L131.604,91.236L129.764,91.236L127.664,101.836L129.584,101.836L130.704,96.236C130.93,95.09 131.384,94.24 132.064,93.686C132.744,93.133 133.597,92.856 134.624,92.856C135.624,92.856 136.317,93.123 136.704,93.656C137.09,94.19 137.184,94.936 136.984,95.896L135.804,101.836L137.724,101.836L138.904,95.896C139.104,94.896 139.08,94.04 138.834,93.326C138.587,92.613 138.15,92.07 137.524,91.696C136.897,91.323 136.117,91.136 135.184,91.136C134.224,91.136 133.354,91.323 132.574,91.696C132.115,91.916 131.703,92.209 131.339,92.577ZM143.497,99.921C143.518,99.963 143.54,100.005 143.564,100.046C143.91,100.666 144.407,101.14 145.054,101.466C145.7,101.793 146.477,101.956 147.384,101.956C148.237,101.956 149.03,101.8 149.764,101.486C150.497,101.173 151.134,100.736 151.674,100.176C152.214,99.616 152.634,98.956 152.934,98.196C153.234,97.436 153.384,96.603 153.384,95.696C153.384,94.75 153.18,93.933 152.774,93.246C152.367,92.56 151.814,92.036 151.114,91.676C150.414,91.316 149.61,91.136 148.704,91.136C147.824,91.136 147.037,91.296 146.344,91.616C145.87,91.835 145.442,92.115 145.059,92.458L146.164,86.996L144.244,86.996L141.284,101.836L143.104,101.836L143.497,99.921ZM147.304,100.276C146.29,100.276 145.51,100.01 144.964,99.476C144.417,98.943 144.144,98.216 144.144,97.296C144.144,96.416 144.32,95.64 144.674,94.966C145.027,94.293 145.52,93.766 146.154,93.386C146.787,93.006 147.497,92.816 148.284,92.816C149.297,92.816 150.077,93.08 150.624,93.606C151.17,94.133 151.444,94.863 151.444,95.796C151.444,96.663 151.264,97.433 150.904,98.106C150.544,98.78 150.054,99.31 149.434,99.696C148.814,100.083 148.104,100.276 147.304,100.276ZM165.525,114.473L166.624,108.996L164.704,108.996L161.744,123.836L163.664,123.836L164.784,118.236C165.01,117.09 165.464,116.24 166.144,115.686C166.824,115.133 167.677,114.856 168.704,114.856C169.704,114.856 170.397,115.123 170.784,115.656C171.17,116.19 171.264,116.936 171.064,117.896L169.884,123.836L171.804,123.836L172.984,117.896C173.184,116.896 173.16,116.04 172.914,115.326C172.667,114.613 172.23,114.07 171.604,113.696C170.977,113.323 170.197,113.136 169.264,113.136C168.304,113.136 167.434,113.323 166.654,113.696C166.239,113.895 165.863,114.154 165.525,114.473ZM123.238,92.806L123.544,91.236L121.704,91.236L119.604,101.836L121.524,101.836L122.584,96.536C122.824,95.31 123.287,94.41 123.974,93.836C124.66,93.263 125.53,92.976 126.584,92.976L126.844,92.976C126.924,92.976 127.004,92.983 127.084,92.996L127.444,91.136C126.324,91.136 125.384,91.316 124.624,91.676C124.098,91.925 123.636,92.302 123.238,92.806ZM151.799,114.577L152.064,113.236L150.224,113.236L148.124,123.836L150.044,123.836L151.164,118.236C151.39,117.09 151.844,116.24 152.524,115.686C153.204,115.133 154.057,114.856 155.084,114.856C156.084,114.856 156.777,115.123 157.164,115.656C157.55,116.19 157.644,116.936 157.444,117.896L156.264,123.836L158.184,123.836L159.364,117.896C159.564,116.896 159.54,116.04 159.294,115.326C159.047,114.613 158.61,114.07 157.984,113.696C157.357,113.323 156.577,113.136 155.644,113.136C154.684,113.136 153.814,113.323 153.034,113.696C152.575,113.916 152.163,114.209 151.799,114.577ZM130.042,114.816L128.904,120.496C128.77,121.203 128.8,121.816 128.994,122.336C129.187,122.856 129.514,123.256 129.974,123.536C130.434,123.816 130.984,123.956 131.624,123.956C132.037,123.956 132.46,123.91 132.894,123.816C133.327,123.723 133.724,123.55 134.084,123.296L133.684,121.836C133.47,121.996 133.23,122.12 132.964,122.206C132.697,122.293 132.43,122.336 132.164,122.336C131.59,122.336 131.2,122.166 130.994,121.826C130.787,121.486 130.73,121.03 130.824,120.456L131.959,114.816L135.004,114.816L135.324,113.236L132.277,113.236L132.744,110.916L130.824,110.916L130.359,113.236L128.544,113.236L128.244,114.816L130.042,114.816ZM156.785,97.136L165.484,97.136C165.524,96.923 165.557,96.693 165.584,96.446C165.61,96.2 165.624,95.956 165.624,95.716C165.624,94.756 165.427,93.936 165.034,93.256C164.64,92.576 164.09,92.053 163.384,91.686C162.677,91.32 161.844,91.136 160.884,91.136C159.737,91.136 158.714,91.406 157.814,91.946C156.914,92.486 156.204,93.223 155.684,94.156C155.164,95.09 154.904,96.156 154.904,97.356C154.904,98.29 155.11,99.1 155.524,99.786C155.937,100.473 156.524,101.006 157.284,101.386C158.044,101.766 158.944,101.956 159.984,101.956C160.797,101.956 161.584,101.826 162.344,101.566C163.104,101.306 163.737,100.93 164.244,100.436L163.424,99.056C163.05,99.43 162.577,99.726 162.004,99.946C161.43,100.166 160.81,100.276 160.144,100.276C159.01,100.276 158.167,100.013 157.614,99.486C157.06,98.96 156.784,98.216 156.784,97.256C156.784,97.216 156.784,97.176 156.785,97.136ZM156.967,95.736C157.047,95.435 157.152,95.152 157.284,94.886C157.617,94.213 158.087,93.686 158.694,93.306C159.3,92.926 160.004,92.736 160.804,92.736C161.484,92.736 162.067,92.873 162.554,93.146C163.04,93.42 163.397,93.813 163.624,94.326C163.8,94.726 163.871,95.196 163.838,95.736L156.967,95.736ZM180.324,123.956C181.537,123.956 182.607,123.683 183.534,123.136C184.46,122.59 185.19,121.846 185.724,120.906C186.257,119.966 186.524,118.896 186.524,117.696C186.524,116.763 186.32,115.956 185.914,115.276C185.507,114.596 184.93,114.07 184.184,113.696C183.437,113.323 182.564,113.136 181.564,113.136C180.364,113.136 179.294,113.406 178.354,113.946C177.414,114.486 176.677,115.226 176.144,116.166C175.61,117.106 175.344,118.176 175.344,119.376C175.344,120.296 175.55,121.1 175.964,121.786C176.377,122.473 176.954,123.006 177.694,123.386C178.434,123.766 179.31,123.956 180.324,123.956ZM180.444,122.276C179.43,122.276 178.65,122.01 178.104,121.476C177.557,120.943 177.284,120.216 177.284,119.296C177.284,118.416 177.464,117.64 177.824,116.966C178.184,116.293 178.677,115.766 179.304,115.386C179.93,115.006 180.637,114.816 181.424,114.816C182.437,114.816 183.217,115.08 183.764,115.606C184.31,116.133 184.584,116.863 184.584,117.796C184.584,118.663 184.407,119.433 184.054,120.106C183.7,120.78 183.21,121.31 182.584,121.696C181.957,122.083 181.244,122.276 180.444,122.276ZM121.304,123.956C122.264,123.956 123.11,123.823 123.844,123.556C124.577,123.29 125.147,122.9 125.554,122.386C125.96,121.873 126.164,121.25 126.164,120.516C126.164,119.93 126.024,119.466 125.744,119.126C125.464,118.786 125.1,118.526 124.654,118.346C124.207,118.166 123.734,118.026 123.234,117.926C122.734,117.826 122.26,117.723 121.814,117.616C121.367,117.51 121.004,117.36 120.724,117.166C120.444,116.973 120.304,116.703 120.304,116.356C120.304,115.903 120.53,115.526 120.984,115.226C121.437,114.926 122.11,114.776 123.004,114.776C123.55,114.776 124.097,114.84 124.644,114.966C125.19,115.093 125.684,115.31 126.124,115.616L126.884,114.096C126.457,113.79 125.907,113.553 125.234,113.386C124.56,113.22 123.877,113.136 123.184,113.136C122.224,113.136 121.384,113.276 120.664,113.556C119.944,113.836 119.384,114.233 118.984,114.746C118.584,115.26 118.384,115.87 118.384,116.576C118.384,117.163 118.527,117.633 118.814,117.986C119.1,118.34 119.464,118.61 119.904,118.796C120.344,118.983 120.817,119.126 121.324,119.226C121.83,119.326 122.307,119.426 122.754,119.526C123.2,119.626 123.564,119.766 123.844,119.946C124.124,120.126 124.264,120.39 124.264,120.736C124.264,121.216 124.03,121.596 123.564,121.876C123.097,122.156 122.404,122.296 121.484,122.296C120.764,122.296 120.074,122.196 119.414,121.996C118.754,121.796 118.217,121.536 117.804,121.216L116.944,122.736C117.37,123.083 117.98,123.373 118.774,123.606C119.567,123.84 120.41,123.956 121.304,123.956ZM111.724,89.356C112.004,89.356 112.254,89.253 112.474,89.046C112.694,88.84 112.804,88.57 112.804,88.236C112.804,87.956 112.714,87.73 112.534,87.556C112.354,87.383 112.124,87.296 111.844,87.296C111.55,87.296 111.297,87.403 111.084,87.616C110.87,87.83 110.764,88.103 110.764,88.436C110.764,88.703 110.857,88.923 111.044,89.096C111.23,89.27 111.457,89.356 111.724,89.356ZM190.143,114.816L188.324,123.836L190.244,123.836L192.055,114.816L195.084,114.816L195.404,113.236L192.321,113.236L192.504,112.396C192.637,111.743 192.874,111.256 193.214,110.936C193.554,110.616 194.01,110.456 194.584,110.456C195.157,110.456 195.63,110.623 196.004,110.956L196.804,109.536C196.55,109.323 196.227,109.16 195.834,109.046C195.44,108.933 195.024,108.876 194.584,108.876C193.504,108.876 192.634,109.17 191.974,109.756C191.314,110.343 190.877,111.17 190.664,112.236L190.462,113.236L188.624,113.236L188.324,114.816L190.143,114.816ZM110.224,123.956C111.437,123.956 112.507,123.683 113.434,123.136C114.36,122.59 115.09,121.846 115.624,120.906C116.157,119.966 116.424,118.896 116.424,117.696C116.424,116.763 116.22,115.956 115.814,115.276C115.407,114.596 114.83,114.07 114.084,113.696C113.337,113.323 112.464,113.136 111.464,113.136C110.264,113.136 109.194,113.406 108.254,113.946C107.314,114.486 106.577,115.226 106.044,116.166C105.51,117.106 105.244,118.176 105.244,119.376C105.244,120.296 105.45,121.1 105.864,121.786C106.277,122.473 106.854,123.006 107.594,123.386C108.334,123.766 109.21,123.956 110.224,123.956ZM110.344,122.276C109.33,122.276 108.55,122.01 108.004,121.476C107.457,120.943 107.184,120.216 107.184,119.296C107.184,118.416 107.364,117.64 107.724,116.966C108.084,116.293 108.577,115.766 109.204,115.386C109.83,115.006 110.537,114.816 111.324,114.816C112.337,114.816 113.117,115.08 113.664,115.606C114.21,116.133 114.484,116.863 114.484,117.796C114.484,118.663 114.307,119.433 113.954,120.106C113.6,120.78 113.11,121.31 112.484,121.696C111.857,122.083 111.144,122.276 110.344,122.276ZM94.223,91.066L100.484,101.836L102.124,101.836L104.924,87.836L102.924,87.836L100.785,98.607L94.524,87.836L92.884,87.836L90.084,101.836L92.084,101.836L94.223,91.066ZM115.424,89.356C115.717,89.356 115.974,89.253 116.194,89.046C116.414,88.84 116.524,88.57 116.524,88.236C116.524,87.956 116.43,87.73 116.244,87.556C116.057,87.383 115.83,87.296 115.564,87.296C115.27,87.296 115.014,87.403 114.794,87.616C114.574,87.83 114.464,88.103 114.464,88.436C114.464,88.703 114.557,88.923 114.744,89.096C114.93,89.27 115.157,89.356 115.424,89.356ZM102.024,122.256L103.124,116.756L101.204,116.756L100.306,121.332C99.991,121.523 99.667,121.684 99.334,121.816C98.66,122.083 97.93,122.216 97.144,122.216C96.064,122.216 95.16,122.036 94.434,121.676C93.707,121.316 93.16,120.82 92.794,120.186C92.427,119.553 92.244,118.816 92.244,117.976C92.244,117.083 92.397,116.24 92.704,115.446C93.01,114.653 93.45,113.96 94.024,113.366C94.597,112.773 95.284,112.306 96.084,111.966C96.884,111.626 97.784,111.456 98.784,111.456C99.664,111.456 100.44,111.586 101.114,111.846C101.787,112.106 102.357,112.51 102.824,113.056L104.264,111.836C103.717,111.143 102.987,110.61 102.074,110.236C101.16,109.863 100.09,109.676 98.864,109.676C97.544,109.676 96.354,109.893 95.294,110.326C94.234,110.76 93.327,111.363 92.574,112.136C91.82,112.91 91.244,113.806 90.844,114.826C90.444,115.846 90.244,116.936 90.244,118.096C90.244,119.27 90.514,120.3 91.054,121.186C91.594,122.073 92.36,122.763 93.354,123.256C94.347,123.75 95.537,123.996 96.924,123.996C97.87,123.996 98.787,123.843 99.674,123.536C100.56,123.23 101.344,122.803 102.024,122.256ZM185.139,93.16C185.083,93.051 185.021,92.946 184.954,92.846C184.56,92.266 184.034,91.836 183.374,91.556C182.714,91.276 181.984,91.136 181.184,91.136C180.304,91.136 179.494,91.286 178.754,91.586C178.014,91.886 177.377,92.306 176.844,92.846C176.31,93.386 175.894,94.013 175.594,94.726C175.294,95.44 175.144,96.223 175.144,97.076C175.144,97.97 175.344,98.74 175.744,99.386C176.144,100.033 176.7,100.53 177.414,100.876C178.127,101.223 178.944,101.396 179.864,101.396C181.064,101.396 182.087,101.116 182.934,100.556C183.208,100.375 183.462,100.172 183.695,99.949L183.544,100.696C183.317,101.856 182.87,102.72 182.204,103.286C181.537,103.853 180.577,104.136 179.324,104.136C178.497,104.136 177.74,104.02 177.054,103.786C176.367,103.553 175.817,103.243 175.404,102.856L174.344,104.336C174.917,104.816 175.617,105.186 176.444,105.446C177.27,105.706 178.184,105.836 179.184,105.836C180.944,105.836 182.344,105.41 183.384,104.556C184.424,103.703 185.137,102.316 185.524,100.396L187.344,91.236L185.524,91.236L185.139,93.16ZM180.244,99.716C179.257,99.716 178.484,99.473 177.924,98.986C177.364,98.5 177.084,97.823 177.084,96.956C177.084,96.156 177.264,95.443 177.624,94.816C177.984,94.19 178.474,93.7 179.094,93.346C179.714,92.993 180.43,92.816 181.244,92.816C182.244,92.816 183.02,93.06 183.574,93.546C184.127,94.033 184.404,94.703 184.404,95.556C184.404,96.356 184.224,97.07 183.864,97.696C183.504,98.323 183.014,98.816 182.394,99.176C181.774,99.536 181.057,99.716 180.244,99.716ZM170.778,92.806L171.084,91.236L169.244,91.236L167.144,101.836L169.064,101.836L170.124,96.536C170.364,95.31 170.827,94.41 171.514,93.836C172.2,93.263 173.07,92.976 174.124,92.976L174.384,92.976C174.464,92.976 174.544,92.983 174.624,92.996L174.984,91.136C173.864,91.136 172.924,91.316 172.164,91.676C171.638,91.925 171.176,92.302 170.778,92.806Z"
   id="path8"
   style="fill:#f16911;fill-opacity:1" />
    <path
   d="M214.5,123.2L218.6,87.3C219.4,79.2 224,75.1 232.1,75.1L251.4,75.1C260,75.1 264.3,79.4 264.3,88L264.3,96.6C264.3,97.3 263.8,97.8 263.1,97.8L251.7,97.8C251,97.8 250.5,97.3 250.5,96.6L250.5,90.4C250.5,87.7 249.3,86.5 246.6,86.5L235.9,86.5C233.4,86.5 232.2,87.6 231.9,90.1L228.4,121.2C228.2,124.1 229.2,125.3 232,125.3L246.6,125.3C249.2,125.3 250.5,124.1 250.5,121.4L250.5,105.5C250.5,104.8 251,104.3 251.7,104.3L263.1,104.3C263.8,104.3 264.3,104.8 264.3,105.5L264.3,123.8C264.3,132.4 260,136.7 251.4,136.7L226.7,136.7C217.6,136.8 213.5,132.2 214.5,123.2Z"
   style="fill-rule:nonzero;fill:#f16911;fill-opacity:1"
   id="path9" />
    <path
   d="M269.2,134.9L269.2,77C269.2,76.3 269.7,75.8 270.4,75.8L281.9,75.8C282.6,75.8 283.1,76.3 283.1,77L283.1,97.1C283.1,98.3 284.1,98.7 284.6,97.5L293.9,76.8C294.1,76.1 294.6,75.8 295.2,75.8L307.4,75.8C308.2,75.8 308.7,76.4 308.4,77.2L296,103.9C295.8,104.4 295.8,105.1 296,105.6L308,134.6C308.4,135.4 307.9,136 307,136L294.8,136C294.2,136 293.7,135.8 293.5,135L284.5,112.6C284,111.4 283,111.6 283,112.8L283,134.7C283,135.4 282.5,135.9 281.8,135.9L270.3,135.9C269.7,136.1 269.2,135.6 269.2,134.9Z"
   style="fill-rule:nonzero;fill:#f16911;fill-opacity:1"
   id="path10" />
</svg>
